<svg width="190" height="68" viewBox="0 0 190 68" fill="none" xmlns="http://www.w3.org/2000/svg">
<path d="M177.373 17.1707C177.389 17.2976 177.452 17.3293 177.927 17.3214H183.667C184.615 17.3243 185.551 17.1132 186.406 16.7038C187.262 16.2944 188.014 15.6971 188.607 14.9565C189.2 14.2158 189.619 13.3508 189.833 12.4256C190.047 11.5004 190.05 10.5389 189.842 9.6124C189.506 8.06272 188.598 6.69716 187.301 5.78853C186.003 4.8799 184.412 4.4951 182.843 4.71102C181.32 4.91032 179.923 5.66056 178.914 6.82043C177.905 7.98029 177.354 9.46975 177.365 11.0083C177.365 11.8093 177.349 16.2903 177.373 17.1707ZM86.259 55.303C84.6519 55.311 75.5477 55.3347 72.9193 55.3268C70.8586 55.3085 68.8131 54.9714 66.8551 54.3275C66.8088 54.3138 66.7591 54.3176 66.7154 54.338C66.6716 54.3585 66.6368 54.3942 66.6176 54.4385L60.9571 66.7237C60.9366 66.7683 60.9333 66.819 60.9479 66.8659C60.9626 66.9128 60.994 66.9525 61.0363 66.9775C61.915 67.4534 63.6963 67.961 64.9551 67.961C70.1801 68.0403 75.4052 67.9768 80.6381 67.961C80.7173 67.961 80.7965 67.9134 80.8202 67.842L86.4569 55.5885C86.4723 55.5574 86.4792 55.5227 86.4769 55.488C86.4746 55.4533 86.4633 55.4198 86.4441 55.3909C86.4248 55.362 86.3983 55.3387 86.3672 55.3232C86.3362 55.3078 86.3016 55.3008 86.2669 55.303H86.259ZM3.7745 17.4165C3.21241 17.4165 3.17282 17.4324 3.17282 17.4958C3.13624 17.7059 3.10982 17.9177 3.09366 18.1303C2.87991 21.2789 2.79282 22.0562 1.24114 42.3993C1.14614 44.3027 0.971971 45.4844 0.17238 47.2134C-0.0334554 47.6655 -0.0888726 47.5465 0.19613 48.1017C0.5603 48.8313 5.58743 60.1806 6.42661 61.9016C6.48994 62.0206 6.51369 62.0603 6.56119 62.0603C6.62452 62.0603 6.82244 61.8541 6.93328 61.7113C8.09704 60.2282 9.05496 58.6103 9.87039 56.9051C12.2929 51.8689 13.3538 46.3965 13.7179 43.3748C13.8288 42.5024 13.8842 41.6299 13.9554 40.7575L15.5704 20.01L15.7446 17.6862C15.7684 17.4562 15.7446 17.4245 15.5071 17.4165H3.7745ZM60.7988 47.2134C60.0936 45.7069 59.7287 44.0632 59.73 42.3993C59.6984 41.7331 59.4846 39.3062 57.8696 18.1303C57.8635 17.9115 57.837 17.6938 57.7904 17.48C57.7588 17.3927 57.3787 17.4165 57.1887 17.4165H45.472C45.2345 17.4245 45.2028 17.4562 45.2345 17.6862L45.4007 20.01C46.0024 27.7982 46.612 35.5865 47.2453 43.3748C47.6412 46.5472 48.7178 51.9799 51.1008 56.9051C51.9162 58.6103 52.8662 60.2282 54.03 61.7113C54.1487 61.8541 54.3229 62.1158 54.41 62.0999C54.5683 62.0761 60.2842 49.0772 60.775 48.1017C61.06 47.5465 61.0125 47.6655 60.7988 47.2134ZM91.3653 39.9724H84.4619C84.2943 39.974 84.129 39.9333 83.9812 39.854C83.8334 39.7747 83.708 39.6594 83.6164 39.5187C83.5249 39.378 83.4703 39.2165 83.4575 39.049C83.4448 38.8816 83.4744 38.7136 83.5436 38.5606L92.8695 17.7417C92.8827 17.7115 92.8881 17.6784 92.8853 17.6456C92.8825 17.6127 92.8716 17.5811 92.8535 17.5535C92.8354 17.5259 92.8108 17.5033 92.7818 17.4877C92.7528 17.4721 92.7203 17.464 92.6874 17.4641L82.2532 17.4403C82.0561 17.4411 81.8621 17.3922 81.689 17.298C81.5159 17.2037 81.3692 17.0673 81.2627 16.9013C81.1562 16.7353 81.0931 16.545 81.0795 16.3481C81.0658 16.1512 81.1019 15.954 81.1844 15.7748L88.1195 0.277586C88.1326 0.247358 88.1381 0.214318 88.1353 0.181456C88.1325 0.148594 88.1215 0.116947 88.1035 0.0893842C88.0854 0.0618219 88.0607 0.0392151 88.0317 0.0236072C88.0027 0.00799936 87.9703 -0.000113815 87.9374 1.20616e-06H75.5873C75.5081 1.20616e-06 75.4289 0.0475863 75.3973 0.118966L68.0663 16.5203C67.3934 17.8607 65.5805 21.5486 64.9076 23.9596C64.7638 24.4508 64.7102 24.9641 64.7492 25.4744C64.7767 26.0872 64.958 26.6831 65.2762 27.2071C65.5945 27.7312 66.0395 28.1663 66.5701 28.4724C67.6884 29.0812 68.939 29.4053 70.2118 29.4162H74.8827C75.2072 29.4162 69.4359 41.1699 68.2801 45.0561C68.145 45.4978 68.0835 45.9586 68.098 46.4203C68.1025 47.0594 68.2727 47.6864 68.5919 48.2397C68.9111 48.7931 69.3684 49.2539 69.9189 49.5768C71.1064 50.3065 72.6264 50.5286 73.6793 50.5286L86.8211 50.5206C86.9003 50.5206 86.9794 50.473 87.0032 50.4017L91.5553 40.2499C91.5688 40.2191 91.5742 40.1853 91.571 40.1518C91.5679 40.1183 91.5562 40.0861 91.5372 40.0583C91.5182 40.0305 91.4925 40.0081 91.4624 39.993C91.4323 39.978 91.3989 39.9709 91.3653 39.9724ZM36.5023 0.816894H24.5401C24.5049 0.814663 24.4695 0.819844 24.4364 0.832101C24.4033 0.844358 24.373 0.863418 24.3477 0.888064C24.3223 0.91271 24.3024 0.942396 24.2892 0.975212C24.276 1.00803 24.2698 1.04325 24.2709 1.07862C24.2709 9.39033 24.1918 23.2458 24.1918 55.2396C24.1918 57.5237 22.0622 57.3175 21.9751 57.3175H16.1167C15.8 57.3254 15.7684 57.3492 15.8 57.6903C15.8079 57.9837 19.4813 66.1289 20.1938 67.7072C20.273 67.8658 20.4313 67.9689 20.5976 67.9689C21.8405 67.9927 26.6697 68.0403 28.0235 67.8578C29.2347 67.6992 30.3985 67.382 31.491 66.811C33.866 65.5737 35.3702 63.4878 36.2015 60.7437C36.6131 59.3796 36.7952 57.9441 36.7952 56.5165C36.8111 38.0372 36.7952 19.5579 36.7398 1.07069C36.7398 1.00338 36.7131 0.938825 36.6656 0.891229C36.6181 0.843634 36.5537 0.816894 36.4865 0.816894H36.5023ZM129.793 55.5092C129.793 55.3982 129.714 55.3427 129.603 55.3348H118.005C117.625 55.3268 117.617 55.3189 117.609 54.9461V17.9876C117.609 17.4165 117.57 17.4324 118.163 17.4324H124.996C125.629 17.4324 125.589 17.4641 125.589 16.8455V5.38516C125.589 4.73482 125.637 4.78241 124.956 4.78241H97.2475C96.7408 4.78241 96.6537 4.73482 96.6537 5.36137V16.8217C96.6537 17.48 96.6062 17.4324 97.287 17.4324H104.048C104.642 17.4324 104.602 17.4007 104.602 17.9876V54.6606C104.602 55.4141 104.665 55.3268 103.929 55.3268C101 55.3268 95.1416 55.311 93.6058 55.3268C93.2258 55.3347 93.1308 55.5648 93.1308 55.5648L87.6128 67.612C87.6128 67.612 87.5019 67.8103 87.5494 67.8975C87.5969 67.9768 87.6524 67.961 88.0086 67.961C101.847 67.9847 115.678 67.9768 129.516 67.9768C129.754 67.9689 129.785 67.9292 129.793 67.7151V55.5092ZM162.861 28.3058C162.861 28.4089 162.806 28.4882 162.703 28.4962C159.964 28.5438 157.225 28.5279 154.493 28.5279C154.383 28.512 154.319 28.4486 154.319 28.3375C154.28 24.8955 154.264 21.4455 154.24 18.0034C154.24 17.4324 154.193 17.4403 154.794 17.4482L160.597 17.4245C160.922 17.4245 161.238 17.4403 161.547 17.5434C162.283 17.7417 162.814 18.392 162.853 19.1614C162.901 22.5796 162.869 28.3058 162.861 28.3058ZM183.999 30.241C181.84 29.1106 179.445 28.5073 177.009 28.4803H175.584C175.267 28.4724 175.267 28.4565 175.251 28.1631V19.7958C175.251 18.7489 175.196 17.71 175.053 16.671C174.865 15.2164 174.456 13.7991 173.842 12.4676C172.719 10.0531 170.836 8.07475 168.482 6.83654C166.047 5.52528 163.331 4.82327 160.566 4.79034C159.354 4.76654 156.077 4.79034 154.866 4.79034C154.311 4.79034 154.327 4.82206 154.327 4.27482V0.364828C154.327 0.118967 154.248 0.0396561 153.963 0.0555181H141.945C141.945 0.0555181 141.819 0.0555179 141.763 0.111035C141.716 0.158621 141.7 0.206205 141.7 0.293447V4.62379C141.637 4.9093 141.249 4.74275 141.051 4.79827H133.53C133.356 4.81413 133.308 4.86172 133.292 5.05206V16.7979C133.292 17.5117 133.261 17.4482 133.942 17.4482H141.17C141.819 17.4482 141.74 18.4634 141.74 18.4634V27.5682C141.74 27.5682 141.763 28.4962 141.265 28.4962H129.532C128.994 28.4962 129.057 29.1465 129.057 29.1465V40.6068C129.057 40.6068 128.978 41.1462 129.564 41.1462H141.098C141.747 41.1462 141.7 41.0986 141.7 41.7727V67.3503C141.7 68.0482 141.645 67.9927 142.349 67.9927H153.67C154.383 67.9927 154.319 68.0482 154.319 67.3582V41.4237C154.319 41.1937 154.367 41.1462 154.58 41.1462L172.971 41.1224C173.747 41.1224 174.483 41.281 175.188 41.6062C175.817 41.8843 176.354 42.335 176.738 42.9062C177.122 43.4774 177.336 44.1458 177.357 44.8341C177.42 47.9668 177.381 51.0996 177.381 54.2323C177.381 56.2865 176.534 57.143 174.768 57.143H165.126C164.944 57.1589 164.896 57.2065 164.904 57.4047C166.361 60.8706 167.865 64.3127 169.416 67.7389C169.445 67.7995 169.489 67.851 169.545 67.8875C169.601 67.9239 169.666 67.9439 169.733 67.9451C171.079 67.9847 172.425 67.961 173.771 67.9689C174.958 67.953 177.864 68.0006 179.043 67.8896C180.137 67.8023 181.22 67.603 182.273 67.2947C186.944 65.8672 189.992 61.7589 190 56.8813V41.1699C190 40.1548 189.921 39.1555 189.731 38.1562C189.731 38.7748 189.501 33.0724 183.999 30.241Z" fill="#FF2741"/>
</svg>
