<svg width="20" height="19" viewBox="0 0 20 19" fill="none" xmlns="http://www.w3.org/2000/svg">
<mask id="path-1-inside-1_690_1914" fill="white">
<path d="M10 0C15.5228 0 19.9999 3.75704 20 8.3916C20 13.0262 15.5228 16.7832 10 16.7832C8.25704 16.7832 6.36284 17.5856 4.6559 17.9381C4.03673 18.0659 3.38201 18.103 2.76758 18.085C2.01513 18.0627 1.67533 17.1906 2.14063 16.6055C2.91409 15.6327 2.68125 14.2243 1.87291 13.2803C0.694328 11.9038 0 10.2161 0 8.3916C7.92285e-05 3.75704 4.4772 0 10 0Z"/>
</mask>
<path d="M20 8.3916H22V8.39157L20 8.3916ZM2.76758 18.085L2.70842 20.0841L2.70899 20.0841L2.76758 18.085ZM2.14063 16.6055L3.70602 17.8503L3.7061 17.8502L2.14063 16.6055ZM0 8.3916L-2 8.39157V8.3916H0ZM10 0V2C14.7611 2 17.9999 5.17581 18 8.39164L20 8.3916L22 8.39157C21.9999 2.33827 16.2845 -2 10 -2V0ZM20 8.3916H18C18 11.6074 14.7612 14.7832 10 14.7832V16.7832V18.7832C16.2845 18.7832 22 14.445 22 8.3916H20ZM4.6559 17.9381L4.25141 15.9794C3.82138 16.0682 3.32798 16.1005 2.82617 16.0858L2.76758 18.085L2.70899 20.0841C3.43604 20.1054 4.25208 20.0637 5.06038 19.8968L4.6559 17.9381ZM2.76758 18.085L2.82674 16.0858C3.30083 16.0999 3.69197 16.4182 3.84723 16.7958C3.99148 17.1467 3.94167 17.5539 3.70602 17.8503L2.14063 16.6055L0.575234 15.3607C-0.747798 17.0244 0.0470135 20.0053 2.70842 20.0841L2.76758 18.085ZM1.87291 13.2803L3.39208 11.9794C2.48947 10.9253 2 9.68874 2 8.3916H0H-2C-2 10.7434 -1.10082 12.8824 0.353744 14.5811L1.87291 13.2803ZM0 8.3916L2 8.39164C2.00006 5.17581 5.23891 2 10 2V0V-2C3.7155 -2 -1.9999 2.33827 -2 8.39157L0 8.3916ZM2.14063 16.6055L3.7061 17.8502C5.25333 15.9042 4.61755 13.4106 3.39208 11.9794L1.87291 13.2803L0.353744 14.5811C0.510062 14.7636 0.593483 14.9764 0.611031 15.1424C0.626851 15.292 0.588655 15.3438 0.575149 15.3608L2.14063 16.6055ZM10 16.7832V14.7832C8.85043 14.7832 7.72826 15.0447 6.79238 15.2978C5.75757 15.5776 5.02976 15.8187 4.25141 15.9794L4.6559 17.9381L5.06038 19.8968C5.98897 19.705 7.06174 19.3686 7.8365 19.1591C8.7102 18.9229 9.40662 18.7832 10 18.7832V16.7832Z" fill="black" mask="url(#path-1-inside-1_690_1914)"/>
</svg>
