<svg width="23" height="18" viewBox="0 0 23 18" fill="none" xmlns="http://www.w3.org/2000/svg">
<path d="M16.0547 7.68262L18.5498 8.01562V16C18.5498 16.5523 18.1021 17 17.5498 17H5.83301C5.28087 16.9998 4.83301 16.5522 4.83301 16V7.96387L6.94531 7.68262C7.09982 7.66198 7.25697 7.6776 7.4043 7.72852L10.5186 8.80664C11.1542 9.02665 11.8458 9.02665 12.4814 8.80664L15.5957 7.72852C15.743 7.6776 15.9002 7.66198 16.0547 7.68262ZM5.39453 1H17.6055C17.9688 1 18.3042 1.19691 18.4805 1.51465L21.1602 6.34668L19.6826 6.14941L16.3193 5.7002C15.8555 5.63825 15.3837 5.68583 14.9414 5.83887L11.8271 6.91602C11.6153 6.98935 11.3847 6.98935 11.1729 6.91602L8.05859 5.83887C7.61633 5.68583 7.14454 5.63825 6.68066 5.7002L3.70117 6.09766L1.83984 6.34668L4.51953 1.51465C4.69582 1.19691 5.03116 1 5.39453 1Z" stroke="black" stroke-width="2" stroke-linejoin="round"/>
</svg>
