<svg width="31" height="30" viewBox="0 0 31 30" fill="none" xmlns="http://www.w3.org/2000/svg">
<path d="M15.5001 9.3331V15.5855C15.5001 15.8508 15.6055 16.1051 15.793 16.2927L19.5001 19.9998M22.0001 1L22.2205 1.08815C25.3121 2.3248 27.883 4.58925 29.5001 7.5M1.00012 7.5C2.61721 4.58925 5.18812 2.3248 8.27975 1.08815L8.50012 1M23.5001 25.5L26.5001 28.5M7.50012 25.5L4.50012 28.5M27.5001 16C27.5001 22.6274 22.1275 28 15.5001 28C8.8727 28 3.50012 22.6274 3.50012 16C3.50012 9.37258 8.8727 4 15.5001 4C22.1275 4 27.5001 9.37258 27.5001 16Z" stroke="white" stroke-width="2" stroke-linecap="round"/>
</svg>
