<svg width="18" height="18" viewBox="0 0 18 18" fill="none" xmlns="http://www.w3.org/2000/svg">
<path d="M14.0943 8.60378C16.689 8.60378 18.8862 10.8316 17.6422 13.1086C17.5088 13.3527 17.3643 13.5914 17.2089 13.824C16.1764 15.3692 14.7089 16.5736 12.992 17.2847C11.2751 17.9959 9.3858 18.182 7.56311 17.8194C5.74042 17.4569 4.06618 16.562 2.75209 15.2479C1.43801 13.9338 0.543105 12.2596 0.18055 10.4369C-0.182005 8.6142 0.00407127 6.72493 0.715249 5.008C1.42643 3.29106 2.63076 1.82358 4.17596 0.791106C4.40855 0.635698 4.64729 0.491196 4.89139 0.357838C7.16843 -0.88615 9.39622 1.31097 9.39622 3.90567C9.39622 6.50036 11.4996 8.60378 14.0943 8.60378Z" fill="white"/>
</svg>
